<?xml version="1.0" encoding="utf-8"?>
<!-- Uploaded to: SVG Repo, www.svgrepo.com, Generator: SVG Repo Mixer Tools -->
<svg fill="#000000" width="800px" height="800px" viewBox="0 0 32 32" version="1.1" xmlns="http://www.w3.org/2000/svg">
<title>copy</title>
<path d="M30.731 8.16c-0.005-0.035-0.011-0.066-0.019-0.095l0.001 0.005c-0.031-0.134-0.094-0.249-0.182-0.342l0 0-6.297-6.296c-0.093-0.087-0.208-0.15-0.336-0.181l-0.005-0.001c-0.026-0.008-0.058-0.014-0.091-0.019l-0.004-0c-0.026-0.007-0.059-0.014-0.092-0.018l-0.004-0h-9.445c-0.414 0-0.75 0.336-0.75 0.75v0 22.038c0 0.414 0.336 0.75 0.75 0.75h15.742c0.414-0 0.75-0.336 0.75-0.75v0-15.742c-0.005-0.038-0.012-0.071-0.020-0.103l0.001 0.005zM24.453 3.773l3.736 3.735h-3.736zM15.008 23.25v-20.538h7.945v5.546c0 0.414 0.336 0.75 0.75 0.75h5.547v14.242zM17.742 27.25c-0.414 0-0.75 0.336-0.75 0.75v0 1.27h-14.242v-20.539h7.25c0.414 0 0.75-0.336 0.75-0.75s-0.336-0.75-0.75-0.75v0h-8c-0.414 0-0.75 0.336-0.75 0.75v0 22.039c0 0.414 0.336 0.75 0.75 0.75h15.742c0.414-0 0.75-0.336 0.75-0.75v0-2.020c-0-0.414-0.336-0.75-0.75-0.75v0z"></path>
</svg>